:SAMPLES-PER-SECOND 30
:FULLY-SPECIFIED
:DEGREES
1026
root  17.3592 36.7324 22.8805 177.352 4.54102 175.595
RightUpLeg  -16.5696 -17.0787 -24.8037
RightLeg  23.8326 1.5797 0.531508
RightFoot  0.338087 -1.15673 11.2799
RightToes  -6.98493e-010 0 -3.6325e-017
Spine  15.2367 -0.490864 6.7447
Spine1  6.83249 2.05175 -6.79145
HEad  -21.9907 -2.29535 -1.43186
LeftShoulder1  0.158426 3.01096 -26.0303
LeftArm  -25.1316 6.66075 -31.6189
LeftForeArm  76.2731 -78.4624 -102.862
LeftHand  -0.100224 1.2844 2.67621
RightShoulder  -0.106803 -3.8846 19.9052
RightArm  -9.2399 16.7369 44.7697
RightForeArm  85.5368 77.7276 113.184
RightHand  -0.0466868 -2.75395 -1.43583
LeftUpLeg  -7.18161 3.12753 18.9688
LeftLeg  19.336 -3.15837 -0.90627
LeftFoot  -4.45812 0.899512 -14.3518
LeftToes  7.91257e-010 -1.64976e-010 -3.02228e-011
1027
root  18.7077 36.6473 22.9699 177.61 4.93579 175.518
RightUpLeg  -18.9338 -18.3755 -22.5876
RightLeg  27.4754 2.53778 1.20262
RightFoot  -0.123332 -1.10903 11.2055
RightToes  -6.98493e-010 0 -3.6325e-017
Spine  15.5894 -0.650271 7.47563
Spine1  7.54785 1.95615 -6.36378
HEad  -22.5533 -1.79545 -2.46272
LeftShoulder1  0.086544 3.24236 -26.8027
LeftArm  -25.8282 6.53826 -31.2211
LeftForeArm  72.9639 -78.6015 -99.42
LeftHand  -0.0841845 1.41632 2.28086
RightShoulder  -0.0842317 -3.80597 19.185
RightArm  -8.23799 19.7519 45.1645
RightForeArm  80.6974 78.0148 109.164
RightHand  -0.0583565 -2.84635 -2.0114
LeftUpLeg  -6.65921 4.09993 20.875
LeftLeg  17.3134 -2.73099 -0.606831
LeftFoot  -0.146574 1.39235 -14.1915
LeftToes  7.91257e-010 -1.64976e-010 -3.02228e-011
1028
root  20.0102 36.7507 23.1156 177.774 3.76649 175.362
RightUpLeg  -20.162 -20.4391 -20.667
RightLeg  30.5372 2.89983 1.60227
RightFoot  -1.73065 -0.743684 8.70551
RightToes  -6.98493e-010 0 -3.6325e-017
Spine  16.1382 -1.2483 7.87864
Spine1  7.82562 1.27138 -5.65869
HEad  -23.3145 -0.774512 -1.62696
LeftShoulder1  0.182661 2.94777 -26.7025
LeftArm  -26.2556 6.61885 -31.4497
LeftForeArm  69.2721 -78.6814 -95.94
LeftHand  -0.0720137 1.20424 1.85053
RightShoulder  -0.0781688 -3.78397 18.9766
RightArm  -7.8414 21.3949 45.1876
RightForeArm  76.9836 78.2712 105.218
RightHand  -0.0519889 -2.44674 -1.56994
LeftUpLeg  -7.16262 3.08202 21.6797
LeftLeg  15.4433 -0.41405 0.496719
LeftFoot  6.79292 1.53578 -10.1809
LeftToes  7.91257e-010 -1.64976e-010 -3.02228e-011
1029
root  21.2193 36.9626 23.2207 178.155 2.65477 175.297
RightUpLeg  -20.5574 -21.4429 -18.7133
RightLeg  31.4955 2.19242 1.20581
RightFoot  -2.99949 -0.565751 7.46928
RightToes  -6.98493e-010 0 -3.6325e-017
Spine  16.4119 -1.66568 8.21556
Spine1  7.94807 0.77342 -5.27334
HEad  -23.136 -1.25008 -1.5107
LeftShoulder1  0.24775 2.74106 -26.255
LeftArm  -26.2777 6.11633 -32.4881
LeftForeArm  64.4521 -78.7599 -90.6592
LeftHand  -0.0871344 1.49772 2.39838
RightShoulder  -0.130988 -3.98447 19.309
RightArm  -7.78418 22.3639 44.5602
RightForeArm  75.3765 78.4082 102.985
RightHand  -0.0223988 -2.1331 -0.372715
LeftUpLeg  -8.27843 2.29445 21.6653
LeftLeg  14.4389 2.72546 1.80218
LeftFoot  13.0674 0.943186 -4.57628
LeftToes  7.91257e-010 -1.64976e-010 -3.02228e-011
1030
root  22.2822 37.2217 23.2671 178.859 1.76927 175.295
RightUpLeg  -20.8954 -21.8983 -16.7222
RightLeg  31.4584 1.29549 0.610195
RightFoot  -3.69109 -0.434268 6.11841
RightToes  -6.98493e-010 0 -3.6325e-017
Spine  16.1137 -1.84376 8.48042
Spine1  7.80709 0.360096 -4.43022
HEad  -22.7937 -1.66179 -1.54338
LeftShoulder1  0.272318 2.67535 -26.6891
LeftArm  -25.748 5.49387 -32.9054
LeftForeArm  60.9903 -78.7725 -86.3045
LeftHand  -0.0829244 1.15546 2.12956
RightShoulder  -0.0553847 -3.69781 18.7898
RightArm  -8.24182 21.8089 44.1239
RightForeArm  76.8895 78.4417 103.299
RightHand  0.0238044 -2.2792 1.37868
LeftUpLeg  -9.97963 2.63385 21.047
LeftLeg  15.6254 0.967079 0.843913
LeftFoot  12.1122 0.895725 -4.65828
LeftToes  7.91257e-010 -1.64976e-010 -3.02228e-011
1031
root  23.1436 37.5537 23.3158 179.042 1.10325 174.801
RightUpLeg  -20.2829 -22.8057 -15.7303
RightLeg  30.3202 1.1656 0.495793
RightFoot  -3.67631 -0.34318 4.75146
RightToes  -6.98493e-010 0 -3.6325e-017
Spine  16.0074 -2.06187 8.37537
Spine1  7.95065 -0.0144883 -3.91012
HEad  -22.6967 -1.61856 -1.29339
LeftShoulder1  0.236185 2.7861 -26.7199
LeftArm  -24.78 4.36784 -33.4481
LeftForeArm  55.2434 -78.6349 -81.2424
LeftHand  -0.0919227 1.11969 2.37091
RightShoulder  -0.06384 -3.73001 18.8039
RightArm  -8.53721 21.4559 43.7304
RightForeArm  75.6328 78.4719 102.352
RightHand  0.00670123 -2.62417 1.1656
LeftUpLeg  -11.4591 2.32187 18.4905
LeftLeg  18.6923 -2.74563 -0.719159
LeftFoot  7.96205 0.673277 -4.26236
LeftToes  7.91257e-010 -1.64976e-010 -3.02228e-011
1032
root  23.8755 37.9405 23.3425 179.318 0.474913 174.27
RightUpLeg  -19.2912 -23.3175 -14.9835
RightLeg  28.2164 0.81867 0.234307
RightFoot  -3.09747 -0.286494 3.68601
RightToes  -6.98493e-010 0 -3.6325e-017
Spine  15.6921 -2.20964 8.58823
Spine1  7.98983 -0.190136 -3.80953
HEad  -22.7269 -2.01929 -1.41157
LeftShoulder1  0.2481 2.74949 -26.7082
LeftArm  -23.6113 2.92678 -33.8894
LeftForeArm  49.2021 -78.3829 -74.7125
LeftHand  -0.0979621 1.23163 2.58563
RightShoulder  -0.13871 -4.01764 19.174
RightArm  -9.02874 20.609 43.1214
RightForeArm  74.2787 78.4087 102.455
RightHand  -0.0414173 -2.07692 -1.02337
LeftUpLeg  -12.6134 1.12085 14.9731
LeftLeg  21.5211 -2.46349 -0.744159
LeftFoot  3.6457 0.549367 -4.32984
LeftToes  7.91257e-010 -1.64976e-010 -3.02228e-011
1033
root  24.5862 38.3501 23.3175 179.638 0.160601 174.012
RightUpLeg  -18.0052 -23.8825 -13.9
RightLeg  25.3534 0.750712 0.140061
RightFoot  -2.27818 -0.230676 2.70848
RightToes  -6.98493e-010 0 -3.6325e-017
Spine  14.7472 -2.08885 8.84403
Spine1  8.33991 -0.0385874 -4.08343
HEad  -22.0284 -2.51703 -1.71429
LeftShoulder1  0.329208 2.50447 -26.7716
LeftArm  -22.6345 1.79663 -34.5693
LeftForeArm  45.1626 -78.1119 -70.0292
LeftHand  -0.104526 0.940919 2.62665
RightShoulder  -0.173318 -4.14755 19.3553
RightArm  -9.81173 19.4556 42.2687
RightForeArm  77.2362 78.4634 103.212
RightHand  0.0602967 -2.0928 2.51931
LeftUpLeg  -13.0487 0.0647636 11.3716
LeftLeg  23.3572 -1.19858 -0.23411
LeftFoot  -0.625243 0.3554 -3.75145
LeftToes  7.91257e-010 -1.64976e-010 -3.02228e-011
1034
root  25.1995 38.735 23.2663 179.769 -0.335173 173.755
RightUpLeg  -16.2118 -24.0528 -13.2424
RightLeg  22.1794 0.122873 -0.0449299
RightFoot  -1.41651 -0.193906 2.12511
RightToes  -6.98493e-010 0 -3.6325e-017
Spine  13.9457 -2.17652 8.71575
Spine1  8.35193 -0.242894 -4.02934
HEad  -21.2511 -2.3526 -1.98241
LeftShoulder1  0.280702 2.66192 -27.1642
LeftArm  -21.4692 0.972391 -34.6325
LeftForeArm  42.8101 -77.9087 -67.3198
LeftHand  -0.0914523 1.10195 2.35139
RightShoulder  -0.151737 -4.06955 19.1542
RightArm  -10.3173 17.9151 41.7989
RightForeArm  78.6972 78.3062 105.579
RightHand  0.0113253 -2.63879 1.04904
LeftUpLeg  -13.1681 -0.702061 7.15113
LeftLeg  24.7854 1.07017 0.867782
LeftFoot  -4.11115 0.197072 -2.68511
LeftToes  7.91257e-010 -1.64976e-010 -3.02228e-011
1035
root  25.7676 39.0616 23.2078 179.74 -1.07899 173.59
RightUpLeg  -14.0194 -23.6164 -13.1334
RightLeg  19.083 -1.36205 0.329691
RightFoot  -0.582972 -0.13263 1.3632
RightToes  -6.98493e-010 0 -3.6325e-017
Spine  12.9287 -2.19173 8.38377
Spine1  8.7161 -0.401976 -3.89651
HEad  -20.538 -2.55219 -1.97586
LeftShoulder1  0.26573 2.69797 -26.8083
LeftArm  -20.184 -0.111874 -35.1533
LeftForeArm  39.7723 -77.6379 -64.5236
LeftHand  -0.0866032 1.08019 2.19947
RightShoulder  -0.166616 -4.10659 19.4795
RightArm  -11.2685 16.1228 40.979
RightForeArm  80.3791 78.0516 108.72
RightHand  -0.0361648 -3.19241 -0.988541
LeftUpLeg  -12.9373 -0.849829 2.77903
LeftLeg  25.5295 2.16172 1.45393
LeftFoot  -6.31177 0.0860221 -1.17809
LeftToes  7.91257e-010 -1.64976e-010 -3.02228e-011
